<svg xmlns="http://www.w3.org/2000/svg" xmlns:xlink="http://www.w3.org/1999/xlink" version="1.1" x="0px" y="0px" width="100px" height="100px" viewBox="-19 -25 150 150" enable-background="new 0 0 100 100" xml:space="preserve">
<g id="Captions">
</g>
<g id="Your_Icon">
	<path d="M28.228,100l22.059-29.776c1.424-1.952,1.41-4.232-0.147-5.79s-3.889-1.118-6.291,0.144L39,66.95V38.612   c0-9.631,7.871-17.465,17.5-17.465S74,28.981,74,38.612V97h21V38.612C95,17.321,77.791,0,56.5,0C35.21,0,18,17.321,18,38.612   v28.337l-5.121-2.372c-2.402-1.262-4.918-1.701-6.475-0.144c-1.559,1.558-1.615,3.838-0.192,5.79L28.228,100z" fill="#FFFFFF" />
</g>
</svg>